<svg xmlns="http://www.w3.org/2000/svg" viewBox="0 0 50 50"><defs><style>.cls-1{fill:#fff;}</style></defs><g id="Capa_2" data-name="Capa 2"><g id="Capa_1-2" data-name="Capa 1"><path class="cls-1" d="M13.27,43a5.16,5.16,0,0,1-.62,5A5,5,0,0,1,4,46.92a1.59,1.59,0,0,0-1-1,5,5,0,0,1,0-9.18,5.19,5.19,0,0,1,4.19.06c1-1.46,2.06-2.94,3.11-4.4.89-1.24,1.77-2.48,2.7-3.69a3.56,3.56,0,0,0,.47-2.45,21.4,21.4,0,0,1,2.55-9.77A33.83,33.83,0,0,1,26.52,3.71,17,17,0,0,1,38.66.1c8.55.93,12,8.09,11.23,14.59A18.9,18.9,0,0,1,45,24.9,34.28,34.28,0,0,1,27.81,35.81a36.07,36.07,0,0,1-4.45.56,2.26,2.26,0,0,0-1,.27C19.31,38.72,16.33,40.84,13.27,43ZM34.37,3.18a51,51,0,0,0-5,2.42C25,8.35,21.94,12.33,19.5,16.83a22,22,0,0,0-2.85,9,2.09,2.09,0,0,0,.61,1.85A33.89,33.89,0,0,1,21,31.45a4.31,4.31,0,0,0,5,1.56l.33-.08A31.24,31.24,0,0,0,43.59,21.57a15.08,15.08,0,0,0,3-6.11C40.32,13.66,36.29,9.67,34.37,3.18ZM15.58,30.61c-.15.2-.33.42-.49.65L9.22,39.59c-1,1.36-1.73,1.46-3,.4a1.78,1.78,0,0,0-2.16-.25,1.83,1.83,0,0,0-.9,2,1.8,1.8,0,0,0,1.6,1.48c1.74.29,1.74.28,2,2a1.87,1.87,0,0,0,1.54,1.65A1.76,1.76,0,0,0,10.18,46a1.73,1.73,0,0,0-.11-2.16c-.86-1.16-.75-1.9.44-2.75,2-1.43,4-2.85,6.07-4.28l3-2.13ZM46.82,12.12c-.39-5.45-4.37-8.86-9-8.9C38.39,6.93,43.15,11.65,46.82,12.12Z"/><path class="cls-1" d="M21.77,26.48a1.58,1.58,0,1,1,3.16.1,1.6,1.6,0,0,1-1.64,1.56A1.58,1.58,0,0,1,21.77,26.48Z"/><path class="cls-1" d="M40.73,18a1.57,1.57,0,0,1-1.57,1.61A1.6,1.6,0,0,1,37.55,18a1.57,1.57,0,0,1,1.58-1.59A1.53,1.53,0,0,1,40.73,18Z"/><path class="cls-1" d="M31.47,27.25a1.6,1.6,0,0,1-1.57-1.62,1.59,1.59,0,1,1,3.17,0A1.6,1.6,0,0,1,31.47,27.25Z"/><path class="cls-1" d="M31.9,16.38a1.55,1.55,0,0,1,1.63,1.53,1.6,1.6,0,0,1-3.19.07A1.53,1.53,0,0,1,31.9,16.38Z"/><path class="cls-1" d="M32.9,10.17a1.53,1.53,0,0,1-1.58,1.58,1.59,1.59,0,0,1-1.58-1.6,1.55,1.55,0,0,1,1.59-1.57A1.53,1.53,0,0,1,32.9,10.17Z"/><path class="cls-1" d="M23.63,16.24a1.55,1.55,0,0,1,1.61,1.55,1.58,1.58,0,0,1-3.15.07A1.55,1.55,0,0,1,23.63,16.24Z"/><path class="cls-1" d="M42.77,8.67a1.55,1.55,0,0,1-1.58-1.59,1.59,1.59,0,1,1,3.18,0A1.54,1.54,0,0,1,42.77,8.67Z"/></g></g></svg>