<svg xmlns="http://www.w3.org/2000/svg" viewBox="0 0 49.6 50"><defs><style>.cls-1{fill:#fff;}.cls-2{fill:#4c7bb1;}.cls-3{fill:#6787b2;}</style></defs><g id="Capa_2" data-name="Capa 2"><g id="Capa_1-2" data-name="Capa 1"><path class="cls-1" d="M12.43,41.27l-.1.17A6.34,6.34,0,0,1,6.66,45a7.92,7.92,0,0,1-3.44-.53A5.15,5.15,0,0,1,0,39.55a3.34,3.34,0,0,1,1-2.36c.48-.47,1-.9,1.5-1.33s.93-.73,1.4-1.08a2.26,2.26,0,0,0,.88-2.25q-.5-4.5-.9-9Q3.39,18.45,3,13.38A7,7,0,0,1,4.27,8.46,7,7,0,0,1,7.54,6.13L22.39.67A10.68,10.68,0,0,1,29.68.61L44.55,5.53a11.05,11.05,0,0,1,1.28.52,6.19,6.19,0,0,1,3.67,5.31,35.14,35.14,0,0,1,0,4.59c-.15,3.68-.28,7.36-.14,11q.11,2.75.15,5.49A8.63,8.63,0,0,1,49,35.74a7,7,0,0,1-3.57,3.8c-1.24.63-2.51,1.2-3.77,1.79L31.35,46.18a9.24,9.24,0,0,1-4.31,1,10.71,10.71,0,0,1-3.66-.87c-3.59-1.47-7.08-3.15-10.57-4.85ZM5.25,10.69a5.9,5.9,0,0,0-.31,2.49c.2,2.76.39,5.51.64,8.26.34,3.78.74,7.56,1.11,11.34A2.85,2.85,0,0,1,6.07,35a19.14,19.14,0,0,1-1.56,1.56c-.58.52-1.21,1-1.8,1.5A2.13,2.13,0,0,0,2,39.33a2.75,2.75,0,0,0,1.09,2.75,4.82,4.82,0,0,0,2.84,1,4.7,4.7,0,0,0,4-1.47,12,12,0,0,0,.84-1.16L8.62,39.38c-.41-.21-.42-.21-.33-.66s.2-1,.3-1.53l.36.17c1.65.83,3.28,1.66,4.93,2.48,3.41,1.69,6.83,3.37,10.36,4.78.62.24,1.27.41,2,.63l-.54-25.49-.27-.06A26,26,0,0,1,22.77,19a132.59,132.59,0,0,1-13.3-6.05C8.07,12.2,6.68,11.45,5.25,10.69Zm22.33,9.07.55,25.48a8,8,0,0,0,2.45-.76L41.5,39.31c1.14-.54,2.29-1.05,3.4-1.65a4.91,4.91,0,0,0,2.7-4.44c0-1.95,0-3.9-.09-5.85-.1-3.56-.11-7.12.07-10.68.08-1.55.08-3.1.07-4.65a12.1,12.1,0,0,0-.25-1.72l-.43.2L31,18.66A9.79,9.79,0,0,1,27.58,19.76ZM6.34,9.06l.31.18c2.06,1.09,4.11,2.2,6.18,3.26a99.38,99.38,0,0,0,10.91,4.87,7.61,7.61,0,0,0,6.53-.44c5.22-2.76,10.5-5.4,15.76-8.09l.29-.15L46,8.37a6.23,6.23,0,0,0-1.88-1q-7.51-2.5-15-5A8.83,8.83,0,0,0,23,2.45L8.22,7.93A5.46,5.46,0,0,0,6.34,9.06Z"/><path class="cls-1" d="M14,50a5.06,5.06,0,0,1-2.86-.73,2.27,2.27,0,0,1-.41-3.69,3.94,3.94,0,0,1,2.11-1.06,5.76,5.76,0,0,1,3.21.26,3.36,3.36,0,0,1,1.47,1A2.19,2.19,0,0,1,17.26,49a4.68,4.68,0,0,1-2.83,1Zm0-1.44a3.6,3.6,0,0,0,1.85-.42c.9-.53.92-1.13.07-1.74a3.45,3.45,0,0,0-2.52-.51,2.72,2.72,0,0,0-1.65.78.74.74,0,0,0,.1,1.28A3.38,3.38,0,0,0,14,48.56Z"/><path class="cls-2" d="M5.25,10.69c1.43.76,2.82,1.51,4.22,2.24A132.59,132.59,0,0,0,22.77,19a26,26,0,0,0,2.62.72l.27.06.54,25.49c-.69-.22-1.34-.39-2-.63-3.53-1.41-6.95-3.09-10.36-4.78C12.23,39,10.6,38.19,9,37.36l-.36-.17c-.1.52-.21,1-.3,1.53s-.08.45.33.66l2.14,1.06a12,12,0,0,1-.84,1.16,4.7,4.7,0,0,1-4,1.47,4.82,4.82,0,0,1-2.84-1A2.75,2.75,0,0,1,2,39.33a2.13,2.13,0,0,1,.74-1.24c.59-.51,1.22-1,1.8-1.5A19.14,19.14,0,0,0,6.07,35a2.85,2.85,0,0,0,.62-2.25C6.32,29,5.92,25.22,5.58,21.44c-.25-2.75-.44-5.5-.64-8.26A5.9,5.9,0,0,1,5.25,10.69Zm5.81,19a3.21,3.21,0,0,0,.59-.38c2.18-2.35,4.34-4.7,6.51-7.06a.91.91,0,0,0-.06-1.34.87.87,0,0,0-1.35,0l-.25.26-2.76,3-3.52,3.82A.89.89,0,0,0,10,29,1.18,1.18,0,0,0,11.06,29.64ZM15.3,33.3a1.2,1.2,0,0,0,.73,1A.9.9,0,0,0,17.09,34q2.2-2.37,4.4-4.76a1,1,0,0,0-.06-1.39.91.91,0,0,0-1.38.06q-2.22,2.4-4.43,4.81A3.31,3.31,0,0,0,15.3,33.3Z"/><path class="cls-2" d="M27.58,19.76A9.79,9.79,0,0,0,31,18.66l16-8.14.43-.2A12.1,12.1,0,0,1,47.65,12c0,1.55,0,3.1-.07,4.65-.18,3.56-.17,7.12-.07,10.68.06,1.95.12,3.9.09,5.85a4.91,4.91,0,0,1-2.7,4.44c-1.11.6-2.26,1.11-3.4,1.65L30.58,44.48a8,8,0,0,1-2.45.76Zm13.24.76a1.12,1.12,0,0,0-.71-.94A1,1,0,0,0,39,20q-3,3.84-6,7.67A1,1,0,0,0,33.1,29a.93.93,0,0,0,1.39-.21q3-3.84,6-7.67A3.35,3.35,0,0,0,40.82,20.52Zm1.8,7.58a1.06,1.06,0,0,0-.72-.92.93.93,0,0,0-1.06.35q-2.09,2.66-4.16,5.32a.94.94,0,0,0,.15,1.38.93.93,0,0,0,1.35-.2q2.09-2.66,4.16-5.32A3.08,3.08,0,0,0,42.62,28.1Z"/><path class="cls-2" d="M6.34,9.06A5.46,5.46,0,0,1,8.22,7.93L23,2.45a8.83,8.83,0,0,1,6.08-.06q7.5,2.52,15,5a6.23,6.23,0,0,1,1.88,1l.36.32L46,8.84c-5.26,2.69-10.54,5.33-15.76,8.09a7.61,7.61,0,0,1-6.53.44A99.38,99.38,0,0,1,12.83,12.5c-2.07-1.06-4.12-2.17-6.18-3.26Z"/><path class="cls-3" d="M14,48.56A3.38,3.38,0,0,1,11.88,48a.74.74,0,0,1-.1-1.28,2.72,2.72,0,0,1,1.65-.78A3.45,3.45,0,0,1,16,46.4c.85.61.83,1.21-.07,1.74A3.6,3.6,0,0,1,14,48.56Z"/><path class="cls-1" d="M11.06,29.64A1.18,1.18,0,0,1,10,29a.89.89,0,0,1,.2-1.07l3.52-3.82,2.76-3,.25-.26a.87.87,0,0,1,1.35,0,.91.91,0,0,1,.06,1.34c-2.17,2.36-4.33,4.71-6.51,7.06A3.21,3.21,0,0,1,11.06,29.64Z"/><path class="cls-1" d="M15.3,33.3a3.31,3.31,0,0,1,.32-.59q2.21-2.41,4.43-4.81a.91.91,0,0,1,1.38-.06,1,1,0,0,1,.06,1.39Q19.3,31.62,17.09,34a.9.9,0,0,1-1.06.34A1.2,1.2,0,0,1,15.3,33.3Z"/><path class="cls-1" d="M40.82,20.52a3.35,3.35,0,0,1-.31.63q-3,3.84-6,7.67A.93.93,0,0,1,33.1,29,1,1,0,0,1,33,27.62q3-3.84,6-7.67a1,1,0,0,1,1.11-.37A1.12,1.12,0,0,1,40.82,20.52Z"/><path class="cls-1" d="M42.62,28.1a3.08,3.08,0,0,1-.28.61Q40.27,31.38,38.18,34a.93.93,0,0,1-1.35.2.94.94,0,0,1-.15-1.38q2.07-2.67,4.16-5.32a.93.93,0,0,1,1.06-.35A1.06,1.06,0,0,1,42.62,28.1Z"/></g></g></svg>