<svg xmlns="http://www.w3.org/2000/svg" viewBox="0 0 28.83 50"><defs><style>.cls-1{fill:#4f338b;}</style></defs><g id="Capa_2" data-name="Capa 2"><g id="Capa_1-2" data-name="Capa 1"><path class="cls-1" d="M12.74,50c-1-.13-1.9-.23-2.84-.4a11.7,11.7,0,0,1-7-3.63,11.39,11.39,0,0,1-2.6-5.69A20.47,20.47,0,0,1,4.77,23.46a20.88,20.88,0,0,1,4.62-4.38.74.74,0,0,0,.29-.5c0-3.13,0-6.25,0-9.38a.39.39,0,0,0,0-.14,5,5,0,0,1-.78-.21,1.65,1.65,0,0,1-1-1.44v0c-.16-1.8.47-2.74,2.43-2.59.17,0,.35,0,.58,0,0-.2,0-.37,0-.54V.81c0-.62.2-.81.82-.81h5.37c.63,0,.82.19.83.81v4H19.2A1.7,1.7,0,0,1,21,6.53v.39c0,1.34-.48,1.9-1.85,2.12v.51c0,2.94,0,5.89,0,8.83a.88.88,0,0,0,.42.8,21.81,21.81,0,0,1,9.06,14.55,17.24,17.24,0,0,1-1,9.44,10,10,0,0,1-5.75,5.58,17.35,17.35,0,0,1-5.27,1.16,4.71,4.71,0,0,0-.52.09ZM10.82,9v.62q0,4.62,0,9.23a1,1,0,0,1-.45.95A20.73,20.73,0,0,0,3,28.41,18.1,18.1,0,0,0,1.9,41.75a9,9,0,0,0,5.68,6,16.37,16.37,0,0,0,4.8,1,20.8,20.8,0,0,0,8.89-1,8.92,8.92,0,0,0,5.29-5.09,16.1,16.1,0,0,0,.87-9,20.63,20.63,0,0,0-8.9-13.8A1.16,1.16,0,0,1,18,18.81c0-3.08,0-6.15,0-9.23,0-.19,0-.37,0-.57Zm3.55-1.16H19c.73,0,.86-.15.86-1s-.13-1-.85-1H9.84c-.73,0-.86.16-.86,1s.12,1,.85,1Zm-2.3-3.12h4.65V1.19H12.07Z"/><path class="cls-1" d="M7,31.78a4.11,4.11,0,0,1,1.14-2.2,3.82,3.82,0,0,1,3.77-1,3.73,3.73,0,0,1,2.84,2.79.56.56,0,0,0,.66.5c2.79,0,5.59,0,8.39,0h.54c-.24-.62-.46-1.18-.69-1.74-.06-.15-.15-.29-.22-.44a.57.57,0,1,1,1-.53A17.11,17.11,0,0,1,25.2,31a16.15,16.15,0,0,1,.51,9,8.46,8.46,0,0,1-6,6.57,18.23,18.23,0,0,1-10.35.11A8.51,8.51,0,0,1,3,39.76,16,16,0,0,1,4.29,29.35a2.12,2.12,0,0,1,.11-.21.55.55,0,0,1,.81-.28.54.54,0,0,1,.2.8c-.2.43-.4.85-.58,1.29-.11.25-.18.52-.28.83ZM14.4,33H4.68c-.33,0-.48.08-.55.44a14.84,14.84,0,0,0,.09,6.43,7.34,7.34,0,0,0,5.3,5.71,17.48,17.48,0,0,0,9.3.14,7.23,7.23,0,0,0,5.29-4.42,14.15,14.15,0,0,0,.61-7.68c-.08-.48-.27-.63-.75-.62C20.78,33,17.59,33,14.4,33Zm-.81-1.16a2.67,2.67,0,0,0-2.71-2.24A2.67,2.67,0,0,0,8.19,31.8Z"/><path class="cls-1" d="M18.47,25.07a2.7,2.7,0,0,1,2.64,2.7,2.74,2.74,0,0,1-2.73,2.68,2.71,2.71,0,0,1-2.66-2.74A2.68,2.68,0,0,1,18.47,25.07ZM20,27.74a1.55,1.55,0,1,0-1.55,1.56A1.58,1.58,0,0,0,20,27.74Z"/><path class="cls-1" d="M14.93,23.78a1.79,1.79,0,0,1-1.77,1.78,1.78,1.78,0,0,1,0-3.55A1.78,1.78,0,0,1,14.93,23.78Zm-1.8.63a.63.63,0,1,0,0-1.25.63.63,0,0,0-.61.63A.62.62,0,0,0,13.13,24.41Z"/><path class="cls-1" d="M14.4,33c3.19,0,6.38,0,9.57,0,.48,0,.67.14.75.62a14.15,14.15,0,0,1-.61,7.68,7.23,7.23,0,0,1-5.29,4.42,17.48,17.48,0,0,1-9.3-.14,7.34,7.34,0,0,1-5.3-5.71,14.84,14.84,0,0,1-.09-6.43c.07-.36.22-.44.55-.44Z"/><path class="cls-1" d="M13.59,31.8H8.19a2.67,2.67,0,0,1,2.69-2.24A2.67,2.67,0,0,1,13.59,31.8Z"/><path class="cls-1" d="M20,27.74a1.55,1.55,0,1,1-1.58-1.54A1.57,1.57,0,0,1,20,27.74Z"/><path class="cls-1" d="M13.13,24.41a.62.62,0,0,1-.58-.62.63.63,0,0,1,.61-.63.63.63,0,1,1,0,1.25Z"/></g></g></svg>